# xmcd
#
# Track frame offsets:
#	182
#	14700
#	24710
#	44562
#	57062
#	67772
#	80090
#	97497
#	109365
#	124505
#	148525
#	176080
#	192145
#	207560
#	225345
#	245822
#	256580
#	284085
#	300825
#	319710
#
# Disc length: 4462 seconds
#
# Revision: 2
# Processed by: cddbd v1.5.2PL0 Copyright (c) Steve Scherf et al.
# Submitted via: EasyCDDAExtractor 16.0.6.1
#
DISCID=25116c14
DTITLE=Glen Campbell - C-026 Greatest Hits - Live
DYEAR=1900
DGENRE=Country
TTITLE0=Rhinestone Cowboy
TTITLE1=Gentle On My Mind
TTITLE2=Medley: Wichita Lineman, Galveston, Country Boy
TTITLE3=By the Time I Get to Phoenix
TTITLE4=Dreams of an Everyday Hosewife
TTITLE5=Heartache Number Two
TTITLE6=Please Come to Boston
TTITLE7=It's Only Make Believe
TTITLE8=Crying
TTITLE9=Blue Grass Medley
TTITLE10=Milk Cow Blues
TTITLE11=Rollin' (In My Sweet Baby's Arms)
TTITLE12=I'm So Lonesome I Could Cry
TTITLE13=Southern Nights
TTITLE14=Amazing Grace
TTITLE15=Try A Little Tenderness
TTITLE16=Mull of Kintyre
TTITLE17=In Your Loving Arms Again
TTITLE18=It's Your World Boys and Girls
TTITLE19=Trials and Tribulations
EXTD=
EXTT0=
EXTT1=
EXTT2=
EXTT3=
EXTT4=
EXTT5=
EXTT6=
EXTT7=
EXTT8=
EXTT9=
EXTT10=
EXTT11=
EXTT12=
EXTT13=
EXTT14=
EXTT15=
EXTT16=
EXTT17=
EXTT18=
EXTT19=
PLAYORDER=
